{
  "accessors": [
    {
      "bufferView": 2,
      "componentType": 5126,
      "count": 16963,
      "max": [
        1.24868905544281,
        0.2712618410587311,
        1.2196584939956665
      ],
      "min": [
        -1.2315424680709839,
        -0.4090571403503418,
        -1.2605732679367065
      ],
      "type": "VEC3"
    },
    {
      "bufferView": 2,
      "byteOffset": 203556,
      "componentType": 5126,
      "count": 16963,
      "max": [
        1.0,
        1.0,
        1.0
      ],
      "min": [
        -1.0,
        -1.0,
        -1.0
      ],
      "type": "VEC3"
    },
    {
      "bufferView": 1,
      "componentType": 5126,
      "count": 16963,
      "max": [
        1.0000001192092896,
        1.0
      ],
      "min": [
        0.0,
        -1.1920928955078125e-07
      ],
      "type": "VEC2"
    },
    {
      "bufferView": 0,
      "componentType": 5125,
      "count": 90624,
      "type": "SCALAR"
    },
    {
      "bufferView": 2,
      "byteOffset": 407112,
      "componentType": 5126,
      "count": 1901,
      "max": [
        0.5011606216430664,
        0.34342020750045776,
        0.4751898944377899
      ],
      "min": [
        -0.4755805730819702,
        0.19674529135227203,
        -0.5013481974601746
      ],
      "type": "VEC3"
    },
    {
      "bufferView": 2,
      "byteOffset": 429924,
      "componentType": 5126,
      "count": 1901,
      "max": [
        0.9969218373298645,
        1.0,
        0.9969218969345093
      ],
      "min": [
        -0.9969218969345093,
        -1.0,
        -0.9969218969345093
      ],
      "type": "VEC3"
    },
    {
      "bufferView": 1,
      "byteOffset": 135704,
      "componentType": 5126,
      "count": 1901,
      "max": [
        1.0,
        1.0
      ],
      "min": [
        0.0,
        0.0
      ],
      "type": "VEC2"
    },
    {
      "bufferView": 0,
      "byteOffset": 362496,
      "componentType": 5125,
      "count": 9540,
      "type": "SCALAR"
    }
  ],
  "asset": {
    "extras": {
      "author": "pengedarseni (https://sketchfab.com/pengedarseni)",
      "license": "CC-BY-4.0 (http://creativecommons.org/licenses/by/4.0/)",
      "source": "https://sketchfab.com/3d-models/3d-linkedin-logo-e8786a94c6a942c594696d58d8c59a50",
      "title": "3D Linkedin Logo"
    },
    "generator": "Sketchfab-15.58.0",
    "version": "2.0"
  },
  "bufferViews": [
    {
      "buffer": 0,
      "byteLength": 400656,
      "name": "floatBufferViews",
      "target": 34963
    },
    {
      "buffer": 0,
      "byteLength": 150912,
      "byteOffset": 400656,
      "byteStride": 8,
      "name": "floatBufferViews",
      "target": 34962
    },
    {
      "buffer": 0,
      "byteLength": 452736,
      "byteOffset": 551568,
      "byteStride": 12,
      "name": "floatBufferViews",
      "target": 34962
    }
  ],
  "buffers": [
    {
      "byteLength": 1004304,
      "uri": "scene.bin"
    }
  ],
  "materials": [
    {
      "doubleSided": true,
      "name": "glossy_linkedin",
      "pbrMetallicRoughness": {
        "baseColorFactor": [
          0.021219,
          0.135633,
          0.445201,
          1.0
        ],
        "metallicFactor": 0.0,
        "roughnessFactor": 0.2
      }
    },
    {
      "doubleSided": true,
      "name": "glossy_putih",
      "pbrMetallicRoughness": {
        "baseColorFactor": [
          0.8,
          0.8,
          0.8,
          1.0
        ],
        "metallicFactor": 0.0,
        "roughnessFactor": 0.2
      }
    }
  ],
  "meshes": [
    {
      "name": "Object_0",
      "primitives": [
        {
          "attributes": {
            "NORMAL": 1,
            "POSITION": 0,
            "TEXCOORD_0": 2
          },
          "indices": 3,
          "material": 0,
          "mode": 4
        }
      ]
    },
    {
      "name": "Object_1",
      "primitives": [
        {
          "attributes": {
            "NORMAL": 5,
            "POSITION": 4,
            "TEXCOORD_0": 6
          },
          "indices": 7,
          "material": 1,
          "mode": 4
        }
      ]
    }
  ],
  "nodes": [
    {
      "children": [
        1
      ],
      "matrix": [
        1.0,
        0.0,
        0.0,
        0.0,
        0.0,
        2.220446049250313e-16,
        -1.0,
        0.0,
        0.0,
        1.0,
        2.220446049250313e-16,
        0.0,
        0.0,
        0.0,
        0.0,
        1.0
      ],
      "name": "Sketchfab_model"
    },
    {
      "children": [
        2
      ],
      "name": "root"
    },
    {
      "children": [
        3
      ],
      "matrix": [
        1.0,
        0.0,
        0.0,
        0.0,
        0.0,
        2.220446049250313e-16,
        1.0,
        0.0,
        0.0,
        -1.0,
        2.220446049250313e-16,
        0.0,
        0.0,
        0.0,
        0.0,
        1.0
      ],
      "name": "GLTF_SceneRootNode"
    },
    {
      "children": [
        4,
        5
      ],
      "matrix": [
        0.8430913090705872,
        0.0,
        0.0,
        0.0,
        0.0,
        0.0,
        0.8430913090705872,
        0.0,
        0.0,
        -0.8430910706520081,
        0.0,
        0.0,
        0.0,
        3.0,
        6.0,
        1.0
      ],
      "name": "Cylinder.007_0"
    },
    {
      "mesh": 0,
      "name": "Object_4"
    },
    {
      "mesh": 1,
      "name": "Object_5"
    }
  ],
  "scene": 0,
  "scenes": [
    {
      "name": "Sketchfab_Scene",
      "nodes": [
        0
      ]
    }
  ]
}
