{
  "accessors": [
    {
      "bufferView": 2,
      "componentType": 5126,
      "count": 4350,
      "max": [
        1.219374418258667,
        0.13803260028362274,
        1.662343978881836
      ],
      "min": [
        -1.2210524082183838,
        0.071876659989357,
        -2.3919553756713867
      ],
      "type": "VEC3"
    },
    {
      "bufferView": 2,
      "byteOffset": 52200,
      "componentType": 5126,
      "count": 4350,
      "max": [
        0.9999986290931702,
        1.0,
        0.9997992515563965
      ],
      "min": [
        -0.9999978542327881,
        -1.0,
        -0.9998701214790344
      ],
      "type": "VEC3"
    },
    {
      "bufferView": 1,
      "componentType": 5126,
      "count": 4350,
      "max": [
        1.137603521347046,
        1.0195566415786743
      ],
      "min": [
        -0.14691072702407837,
        -0.10463052988052368
      ],
      "type": "VEC2"
    },
    {
      "bufferView": 0,
      "componentType": 5125,
      "count": 12426,
      "type": "SCALAR"
    },
    {
      "bufferView": 2,
      "byteOffset": 104400,
      "componentType": 5126,
      "count": 1981,
      "max": [
        1.233575701713562,
        0.071876659989357,
        1.6765451431274414
      ],
      "min": [
        -1.2352536916732788,
        -0.25178998708724976,
        -2.406156539916992
      ],
      "type": "VEC3"
    },
    {
      "bufferView": 2,
      "byteOffset": 128172,
      "componentType": 5126,
      "count": 1981,
      "max": [
        0.9999870657920837,
        0.9999849796295166,
        1.0
      ],
      "min": [
        -0.9999870657920837,
        -1.0,
        -0.9999871253967285
      ],
      "type": "VEC3"
    },
    {
      "bufferView": 1,
      "byteOffset": 34800,
      "componentType": 5126,
      "count": 1981,
      "max": [
        1.1449284553527832,
        1.0234624147415161
      ],
      "min": [
        -0.15423542261123657,
        -0.10853633284568787
      ],
      "type": "VEC2"
    },
    {
      "bufferView": 0,
      "byteOffset": 49704,
      "componentType": 5125,
      "count": 10569,
      "type": "SCALAR"
    },
    {
      "bufferView": 2,
      "byteOffset": 151944,
      "componentType": 5126,
      "count": 64,
      "max": [
        0.5072402358055115,
        -0.01653045415878296,
        1.6765451431274414
      ],
      "min": [
        -0.5089182257652283,
        -0.11038275063037872,
        1.538474440574646
      ],
      "type": "VEC3"
    },
    {
      "bufferView": 2,
      "byteOffset": 152712,
      "componentType": 5126,
      "count": 64,
      "max": [
        0.19449098408222198,
        0.9999803900718689,
        0.9999517202377319
      ],
      "min": [
        -0.19443656504154205,
        -0.9999803900718689,
        -0.9999517202377319
      ],
      "type": "VEC3"
    },
    {
      "bufferView": 1,
      "byteOffset": 50648,
      "componentType": 5126,
      "count": 64,
      "max": [
        0.43143507838249207,
        0.8051585555076599
      ],
      "min": [
        0.17625638842582703,
        0.660931408405304
      ],
      "type": "VEC2"
    },
    {
      "bufferView": 0,
      "byteOffset": 91980,
      "componentType": 5125,
      "count": 120,
      "type": "SCALAR"
    },
    {
      "bufferView": 2,
      "byteOffset": 153480,
      "componentType": 5126,
      "count": 24,
      "max": [
        1.0311609506607056,
        0.09834352135658264,
        -0.6828055381774902
      ],
      "min": [
        -1.0288389921188354,
        0.09834352135658264,
        -2.2228055000305176
      ],
      "type": "VEC3"
    },
    {
      "bufferView": 2,
      "byteOffset": 153768,
      "componentType": 5126,
      "count": 24,
      "max": [
        2.1236340330688108e-07,
        1.0,
        0.0004793835978489369
      ],
      "min": [
        -2.111854797703927e-07,
        0.9999999403953552,
        -0.00047938362695276737
      ],
      "type": "VEC3"
    },
    {
      "bufferView": 1,
      "byteOffset": 51160,
      "componentType": 5126,
      "count": 24,
      "max": [
        0.9961159825325012,
        0.9908415675163269
      ],
      "min": [
        -0.0013334931572899222,
        -0.0008625388145446777
      ],
      "type": "VEC2"
    },
    {
      "bufferView": 0,
      "byteOffset": 92460,
      "componentType": 5125,
      "count": 66,
      "type": "SCALAR"
    },
    {
      "bufferView": 2,
      "byteOffset": 154056,
      "componentType": 5126,
      "count": 64,
      "max": [
        0.7833293080329895,
        0.12492674589157104,
        1.293357491493225
      ],
      "min": [
        -0.7890059351921082,
        0.12492674589157104,
        -0.2789687216281891
      ],
      "type": "VEC3"
    },
    {
      "bufferView": 2,
      "byteOffset": 154824,
      "componentType": 5126,
      "count": 64,
      "max": [
        0.19406171143054962,
        0.9810265302658081,
        0.19396768510341644
      ],
      "min": [
        -0.19406171143054962,
        0.9809893369674683,
        -0.19396765530109406
      ],
      "type": "VEC3"
    },
    {
      "bufferView": 1,
      "byteOffset": 51352,
      "componentType": 5126,
      "count": 64,
      "max": [
        1.0003060102462769,
        1.0003032684326172
      ],
      "min": [
        -0.00030544400215148926,
        -0.0003021359443664551
      ],
      "type": "VEC2"
    },
    {
      "bufferView": 0,
      "byteOffset": 92724,
      "componentType": 5125,
      "count": 186,
      "type": "SCALAR"
    },
    {
      "bufferView": 2,
      "byteOffset": 155592,
      "componentType": 5126,
      "count": 38,
      "max": [
        0.9775757193565369,
        0.01887667179107666,
        1.6765451431274414
      ],
      "min": [
        -0.9792537093162537,
        -0.25178998708724976,
        1.5705451965332031
      ],
      "type": "VEC3"
    },
    {
      "bufferView": 2,
      "byteOffset": 156048,
      "componentType": 5126,
      "count": 38,
      "max": [
        0.0012620959896594286,
        0.009686390869319439,
        1.0
      ],
      "min": [
        -0.0011504594003781676,
        -1.0,
        0.00019968676497228444
      ],
      "type": "VEC3"
    },
    {
      "bufferView": 1,
      "byteOffset": 51864,
      "componentType": 5126,
      "count": 38,
      "max": [
        1.0148035287857056,
        -0.06989987194538116
      ],
      "min": [
        0.005807220935821533,
        -0.10853633284568787
      ],
      "type": "VEC2"
    },
    {
      "bufferView": 0,
      "byteOffset": 93468,
      "componentType": 5125,
      "count": 108,
      "type": "SCALAR"
    }
  ],
  "asset": {
    "extras": {
      "author": "Jacob Mougharbel (https://sketchfab.com/jacobmougharbel)",
      "license": "CC-BY-4.0 (http://creativecommons.org/licenses/by/4.0/)",
      "source": "https://sketchfab.com/3d-models/ipod-classic-6839a82c7c644fe5a99fce0bf11be727",
      "title": "iPod Classic"
    },
    "generator": "Sketchfab-12.82.3",
    "version": "2.0"
  },
  "bufferViews": [
    {
      "buffer": 0,
      "byteLength": 93900,
      "name": "floatBufferViews",
      "target": 34963
    },
    {
      "buffer": 0,
      "byteLength": 52168,
      "byteOffset": 93900,
      "byteStride": 8,
      "name": "floatBufferViews",
      "target": 34962
    },
    {
      "buffer": 0,
      "byteLength": 156504,
      "byteOffset": 146068,
      "byteStride": 12,
      "name": "floatBufferViews",
      "target": 34962
    }
  ],
  "buffers": [
    {
      "byteLength": 302572,
      "uri": "scene.bin"
    }
  ],
  "images": [
    {
      "uri": "textures/Wheel_baseColor.png"
    }
  ],
  "materials": [
    {
      "doubleSided": true,
      "name": "Material.006",
      "pbrMetallicRoughness": {
        "baseColorFactor": [
          0.0341118,
          0.0341118,
          0.0341118,
          1.0
        ],
        "metallicFactor": 0.188976,
        "roughnessFactor": 0.397638
      }
    },
    {
      "doubleSided": true,
      "name": "Shiney_Back",
      "pbrMetallicRoughness": {
        "baseColorFactor": [
          0.8,
          0.8,
          0.8,
          1.0
        ],
        "roughnessFactor": 0.0
      }
    },
    {
      "doubleSided": true,
      "name": "Port",
      "pbrMetallicRoughness": {
        "baseColorFactor": [
          0.0,
          0.0,
          0.0,
          1.0
        ],
        "metallicFactor": 0.614173,
        "roughnessFactor": 0.704724
      }
    },
    {
      "doubleSided": true,
      "emissiveFactor": [
        1.0,
        1.0,
        1.0
      ],
      "name": "Screen",
      "pbrMetallicRoughness": {
        "baseColorFactor": [
          0.0,
          0.0,
          0.0,
          1.0
        ],
        "metallicFactor": 0.0,
        "roughnessFactor": 0.0
      }
    },
    {
      "doubleSided": true,
      "name": "Wheel",
      "pbrMetallicRoughness": {
        "baseColorTexture": {
          "index": 0
        },
        "metallicFactor": 0.0,
        "roughnessFactor": 0.5
      }
    },
    {
      "doubleSided": true,
      "name": "Material.016",
      "pbrMetallicRoughness": {
        "baseColorFactor": [
          0.8,
          0.8,
          0.8,
          1.0
        ],
        "roughnessFactor": 0.0
      }
    }
  ],
  "meshes": [
    {
      "name": "Object_0",
      "primitives": [
        {
          "attributes": {
            "NORMAL": 1,
            "POSITION": 0,
            "TEXCOORD_0": 2
          },
          "indices": 3,
          "material": 0,
          "mode": 4
        }
      ]
    },
    {
      "name": "Object_1",
      "primitives": [
        {
          "attributes": {
            "NORMAL": 5,
            "POSITION": 4,
            "TEXCOORD_0": 6
          },
          "indices": 7,
          "material": 1,
          "mode": 4
        }
      ]
    },
    {
      "name": "Object_2",
      "primitives": [
        {
          "attributes": {
            "NORMAL": 9,
            "POSITION": 8,
            "TEXCOORD_0": 10
          },
          "indices": 11,
          "material": 2,
          "mode": 4
        }
      ]
    },
    {
      "name": "Object_3",
      "primitives": [
        {
          "attributes": {
            "NORMAL": 13,
            "POSITION": 12,
            "TEXCOORD_0": 14
          },
          "indices": 15,
          "material": 3,
          "mode": 4
        }
      ]
    },
    {
      "name": "Object_4",
      "primitives": [
        {
          "attributes": {
            "NORMAL": 17,
            "POSITION": 16,
            "TEXCOORD_0": 18
          },
          "indices": 19,
          "material": 4,
          "mode": 4
        }
      ]
    },
    {
      "name": "Object_5",
      "primitives": [
        {
          "attributes": {
            "NORMAL": 21,
            "POSITION": 20,
            "TEXCOORD_0": 22
          },
          "indices": 23,
          "material": 5,
          "mode": 4
        }
      ]
    }
  ],
  "nodes": [
    {
      "children": [
        1
      ],
      "matrix": [
        1.0,
        0.0,
        0.0,
        0.0,
        0.0,
        2.220446049250313e-16,
        -1.0,
        0.0,
        0.0,
        1.0,
        2.220446049250313e-16,
        0.0,
        0.0,
        0.0,
        0.0,
        1.0
      ],
      "name": "Sketchfab_model"
    },
    {
      "children": [
        2
      ],
      "name": "root"
    },
    {
      "children": [
        3
      ],
      "matrix": [
        1.0,
        0.0,
        0.0,
        0.0,
        0.0,
        2.220446049250313e-16,
        1.0,
        0.0,
        0.0,
        -1.0,
        2.220446049250313e-16,
        0.0,
        0.0,
        0.0,
        0.0,
        1.0
      ],
      "name": "GLTF_SceneRootNode"
    },
    {
      "children": [
        4,
        5,
        6,
        7,
        8,
        9
      ],
      "matrix": [
        1.0,
        0.0,
        0.0,
        0.0,
        0.0,
        0.0,
        1.0,
        0.0,
        0.0,
        -1.0,
        0.0,
        0.0,
        0.0,
        0.0,
        0.0,
        1.0
      ],
      "name": "iPod_0"
    },
    {
      "mesh": 0,
      "name": "Object_4"
    },
    {
      "mesh": 1,
      "name": "Object_5"
    },
    {
      "mesh": 2,
      "name": "Object_6"
    },
    {
      "mesh": 3,
      "name": "Object_7"
    },
    {
      "mesh": 4,
      "name": "Object_8"
    },
    {
      "mesh": 5,
      "name": "Object_9"
    }
  ],
  "samplers": [
    {
      "magFilter": 9729,
      "minFilter": 9987,
      "wrapS": 10497,
      "wrapT": 10497
    }
  ],
  "scene": 0,
  "scenes": [
    {
      "name": "Sketchfab_Scene",
      "nodes": [
        0
      ]
    }
  ],
  "textures": [
    {
      "sampler": 0,
      "source": 0
    }
  ]
}
