<svg xmlns="http://www.w3.org/2000/svg" viewBox="0 0 504 504"><path d="M4 43.4v308c0 7.6 6.4 15.2 14 15.2l468-4c7.6 0 14-7.2 14-15.2v-302c0-8.8-7.2-14.8-16-14.8H18c-7.6-.4-14 4.8-14 12.8z" fill="#edc654"/><path fill="#cdeef9" d="M28 58.2h444v280H28z"/><path d="M200 124.2l-73.2 73.6L92 164.2 29.6 223c-.4.4 0 111.6 0 111.6H476v-95.2l-75.6-75.6-77.2 76.8L200 124.2z" fill="#3c8e51"/><path d="M200 124.6l-73.2 73.6 138.4 135.6h157.6L200 124.6z" fill="#54b265"/><path d="M92 164.6l-62.4 58.8c-.4.4 0 111.2 0 111.2h237.6L92 164.6z" fill="#e8bb85"/><circle cx="316.4" cy="121" r="26.4" fill="#e9b526"/><ellipse cx="250" cy="361.4" rx="110" ry="110" fill="#33a5d2"/><path d="M486 370.2H364c-2.4 0-4-1.6-4-4s1.6-4 4-4h122c8.8 0 10-6.4 10-10.4V45.4c0-6.4-5.2-10.8-12-10.8H18c-8.8 0-10 4.4-10 8.8v308c0 6.8 3.6 11.2 10 11.2h118c2.4 0 4 1.6 4 4s-1.6 4-4 4H18c-10.8 0-18-7.6-18-19.2v-308c0-10.8 6.4-16.8 18-16.8h466c11.6 0 20 8 20 18.8v306.4c0 11.2-7.2 18.4-18 18.4z"/><path d="M140 342.2H28c-2.4 0-4-1.6-4-4v-280c0-2.4 1.6-4 4-4h388c2.4 0 4 1.6 4 4s-1.6 4-4 4H32v272h108c2.4 0 4 1.6 4 4s-1.6 4-4 4zM472 342.2H360c-2.4 0-4-1.6-4-4s1.6-4 4-4h108v-272h-16c-2.4 0-4-1.6-4-4s1.6-4 4-4h20c2.4 0 4 1.6 4 4v280c0 2.4-1.6 4-4 4z"/><path d="M30 227.4c-1.2 0-2-.4-2.8-1.2-1.6-1.6-1.6-4 0-5.6l62-62c1.6-1.6 4-1.6 5.6 0s1.6 4 0 5.6l-62 62c-.8.8-1.6 1.2-2.8 1.2z"/><path d="M184 257c-1.2 0-2-.4-2.8-1.2l-92-92c-1.6-1.6-1.6-4 0-5.6s4-1.6 5.6 0l92 92c1.6 1.6 1.6 4 0 5.6-.8.8-1.6 1.2-2.8 1.2zM140 189.4c-1.2 0-2-.4-2.8-1.2-1.6-1.6-1.6-4 0-5.6l64-64c1.6-1.6 4-1.6 5.6 0s1.6 4 0 5.6l-64 64c-.8.8-1.6 1.2-2.8 1.2zM336 229.4c-1.2 0-2-.4-2.8-1.2-1.6-1.6-1.6-4 0-5.6l64.4-64.4c1.6-1.6 4-1.6 5.6 0s1.6 4 0 5.6l-64.4 64.4c-.8.8-1.6 1.2-2.8 1.2z"/><path d="M356.4 277.8c-1.2 0-2-.4-2.8-1.2L201.2 124.2c-1.6-1.6-1.6-4 0-5.6s4-1.6 5.6 0L359.2 271c1.6 1.6 1.6 4 0 5.6-.8.8-1.6 1.2-2.8 1.2zM470.4 238.6c-1.2 0-2-.4-2.8-1.2l-70-73.6c-1.6-1.6-1.6-4 0-5.6s4-1.6 5.6 0l70 73.6c1.6 1.6 1.6 4 0 5.6-.8.8-2 1.2-2.8 1.2zM316 149.8c-15.6 0-28-12.8-28-28s12.8-28 28-28c6 0 11.6 1.6 16.4 5.2 2 1.2 2.4 3.6.8 5.6-1.2 2-3.6 2.4-5.6.8-3.6-2.4-7.6-3.6-11.6-3.6-11.2 0-20 9.2-20 20s9.2 20 20 20 20-9.2 20-20c0-2.4 1.6-4 4-4s4 1.6 4 4c.4 15.2-12.4 28-28 28zM250 417.8c-2.4 0-4-1.6-4-4v-104c0-2.4 1.6-4 4-4s4 1.6 4 4v104c0 2-1.6 4-4 4z"/><path d="M305.2 365.4h-108c-2.4 0-4-1.6-4-4s1.6-4 4-4h108c2.4 0 4 1.6 4 4s-1.6 4-4 4z"/><path d="M250 477.4c-64 0-116-52-116-116s52-116 116-116 116 52 116 116-52 116-116 116zm0-223.6c-59.6 0-108 48.4-108 108s48.4 108 108 108 108-48.4 108-108-48.4-108-108-108z"/></svg>