<svg xmlns="http://www.w3.org/2000/svg" viewBox="0 0 512 512"><path d="M488.5 4.3C486.4 2.1 484.3 0 480 0H32c-2.1 0-6.4 2.1-8.5 4.3 -2.1 2.1-2.1 4.3-2.1 8.5l42.7 426.7c0 4.3 4.3 8.5 6.4 8.5l192 64c2.1 0 2.1 0 4.3 0 2.1 0 2.1 0 4.3 0L441.6 448c4.3-2.1 6.4-4.3 6.4-8.5L490.7 12.8C490.7 10.7 490.7 6.4 488.5 4.3zM256 386.1c0 2.1-2.1 6.4-4.3 8.5s-4.4 2.4-6.5 2.4l-2-0.3 -74.7-21.3c-4.3-2.1-6.4-4.3-8.5-8.5L149.3 313.6c-2.1-6.4 2.1-10.7 8.5-12.8 6.4-2.1 10.7 2.1 12.8 8.5l8.5 46.9 55.5 14.9V130.1H117.3c-6.4 0-10.7-4.3-10.7-10.7 0-6.4 4.3-10.7 10.7-10.7h128c6.4 0 10.7 4.3 10.7 10.7V386.1zM405.3 121.6l-10.7 42.7c-2.1 6.4-6.5 9.6-12.8 8.5 -6.7-1.1-9.2-6.4-8.5-12.8 0.8-7.6 6.4-29.9 6.4-29.9h-83.2V236.8H371.2c2.1 0 6.4 2.1 8.5 4.3 2.1 2.1 2.1 6.4 2.1 8.5l-21.3 117.3c0 4.3-4.3 6.4-6.4 8.5l-64 21.3c-2.1 0-9.9 3-14.9-6.4 -2.1-6.4 2.1-10.7 6.4-12.8l57.6-19.2 17.1-98.1h-72.5c-6.4 0-10.7-4.3-10.7-10.7v-128c0-6.4 4.3-10.7 10.7-10.7h106.7c4.3 0 7.2 0.9 10 2.1C406.3 115.4 405.3 119.5 405.3 121.6z" fill="#FFDA44"/></svg>