<svg xmlns="http://www.w3.org/2000/svg" width="100%" height="100%" viewBox="0 0 512 512" ><path d="M405.951 196.5l-22.5 223.5-42.598 30H144.952l-46.501-30-19.2-190.8c-.597-6 2.399-11.7 7.5-14.401l56.7-32.699c2.402-1.501 4.797-2.1 7.5-2.1h240c4.2 0 8.401 1.8 11.1 4.799 2.999 3.3 4.2 7.5 3.9 11.701z" fill="#76e2f8"/><path d="M405.951 196.5l-22.5 223.5-42.598 30h-99.902V180h150c4.2 0 8.401 1.8 11.1 4.799 2.999 3.3 4.2 7.5 3.9 11.701z" fill="#25d9f8"/><path d="M175.238 450c-7.588 0-14.121-5.771-14.883-13.506l-18.018-180c-.85-8.247 5.186-15.601 13.418-16.421 8.057-.703 15.586 5.2 16.406 13.433l18.018 180c.85 8.247-5.186 15.601-13.418 16.421-.498.044-1.025.073-1.523.073z" fill="#a8ebfa"/><path d="M306.664 450c-.498 0-1.025-.029-1.523-.073-8.232-.82-14.268-8.174-13.418-16.421l18.018-180c.82-8.232 8.232-14.092 16.406-13.433 8.232.82 14.268 8.174 13.418 16.421l-18.018 180c-.762 7.735-7.296 13.506-14.883 13.506z" fill="#76e2f8"/><path d="M255.951 255v180c0 8.399-6.599 15-15 15s-15-6.601-15-15V255c0-8.401 6.599-15 15-15s15 6.599 15 15z" fill="#a8ebfa"/><path d="M480.951 120h-30c-8.291 0-15-6.709-15-15s6.709-15 15-15h30c8.291 0 15 6.709 15 15s-6.709 15-15 15zM450.951 210a14.948 14.948 0 0 1-10.605-4.395l-30-30c-5.859-5.859-5.859-15.352 0-21.211s15.352-5.859 21.211 0l30 30c5.859 5.859 5.859 15.352 0 21.211A14.954 14.954 0 0 1 450.951 210zM420.951 60a14.948 14.948 0 0 1-10.605-4.395c-5.859-5.859-5.859-15.352 0-21.211l30-30c5.859-5.859 15.352-5.859 21.211 0s5.859 15.352 0 21.211l-30 30A14.954 14.954 0 0 1 420.951 60zM255.951 255v180c0 8.399-6.599 15-15 15V240c8.401 0 15 6.599 15 15z" fill="#76e2f8"/><path d="M246.349 87.9c-1.798 1.199-3.596 1.8-5.398 1.8-5.999.899-12.001-1.8-15-7.2l-22.5-39-77.999 45 22.5 39c4.2 7.2 1.498 16.199-5.702 20.4s-16.201 1.8-20.398-5.4l-30-51.901c-4.2-7.2-1.802-16.5 5.398-20.7l104.099-60c7.2-3.898 16.201-1.5 20.402 5.7l30 51.901c4.2 7.2 1.797 16.199-5.402 20.4z" fill="#25d9f8"/><path d="M385.853 59.399l-30-51.899c-4.204-7.2-13.502-9.6-20.702-5.4l-311.7 180c-6.899 3.9-9.602 12.9-5.398 20.4l30 51.899c3.896 7.2 13.198 9.6 20.398 5.7l311.7-180c7.2-4.2 9.899-13.2 5.702-20.7z" fill="#a8ebfa"/><path d="M380.151 80.099l-139.2 80.4V48.9l3.3 5.7 90.901-52.5c7.2-4.2 16.498-1.8 20.702 5.4l30 51.899c4.196 7.5 1.497 16.5-5.703 20.7z" fill="#76e2f8"/><path d="M98.451 420l7.5 78.5c.901 7.8 7.2 13.5 15 13.5h240c7.8 0 14.099-5.7 15-13.5l7.5-78.5h-285z" fill="#a8ebfa"/><path d="M240.951 420h142.5l-7.5 78.5c-.901 7.8-7.2 13.5-15 13.5h-120v-92z" fill="#76e2f8"/></svg>