{
  "accessors": [
    {
      "bufferView": 1,
      "componentType": 5126,
      "count": 1192,
      "max": [
        16.151790618896484,
        0.27636998891830444,
        1.1724400520324707
      ],
      "min": [
        -16.151790618896484,
        -1.343850016593933,
        -1.0
      ],
      "type": "VEC3"
    },
    {
      "bufferView": 1,
      "byteOffset": 14304,
      "componentType": 5126,
      "count": 1192,
      "max": [
        1.0,
        1.0,
        1.0
      ],
      "min": [
        -1.0,
        -1.0,
        -1.0
      ],
      "type": "VEC3"
    },
    {
      "bufferView": 0,
      "componentType": 5125,
      "count": 3138,
      "type": "SCALAR"
    }
  ],
  "asset": {
    "extras": {
      "author": "Tiia Tuulia (https://sketchfab.com/tiiatuulia)",
      "license": "CC-BY-4.0 (http://creativecommons.org/licenses/by/4.0/)",
      "source": "https://sketchfab.com/3d-models/gothic-iron-fence-4afaf4c5612846edb04ccee219f0afc6",
      "title": "Gothic iron Fence"
    },
    "generator": "Sketchfab-12.68.0",
    "version": "2.0"
  },
  "bufferViews": [
    {
      "buffer": 0,
      "byteLength": 12552,
      "name": "floatBufferViews",
      "target": 34963
    },
    {
      "buffer": 0,
      "byteLength": 28608,
      "byteOffset": 12552,
      "byteStride": 12,
      "name": "floatBufferViews",
      "target": 34962
    }
  ],
  "buffers": [
    {
      "byteLength": 41160,
      "uri": "scene.bin"
    }
  ],
  "materials": [
    {
      "doubleSided": true,
      "name": "Iron_fence",
      "pbrMetallicRoughness": {
        "baseColorFactor": [
          0.0003424751363051048,
          0.0003372381694609157,
          0.0003212598623747001,
          1.0
        ],
        "metallicFactor": 0.6602515243902439,
        "roughnessFactor": 0.6
      }
    }
  ],
  "meshes": [
    {
      "name": "Cube_0",
      "primitives": [
        {
          "attributes": {
            "NORMAL": 1,
            "POSITION": 0
          },
          "indices": 2,
          "material": 0,
          "mode": 4
        }
      ]
    }
  ],
  "nodes": [
    {
      "children": [
        1
      ],
      "matrix": [
        1.0,
        0.0,
        0.0,
        0.0,
        0.0,
        2.220446049250313e-16,
        -1.0,
        0.0,
        0.0,
        1.0,
        2.220446049250313e-16,
        0.0,
        0.0,
        0.0,
        0.0,
        1.0
      ],
      "name": "Sketchfab_model"
    },
    {
      "children": [
        2
      ],
      "name": "Root"
    },
    {
      "children": [
        3
      ],
      "matrix": [
        0.08527000000000003,
        0.0,
        0.0,
        0.0,
        0.0,
        0.25233,
        0.0,
        0.0,
        0.0,
        0.0,
        2.84071,
        0.0,
        -0.05805000000000001,
        0.0,
        0.0,
        1.0
      ],
      "name": "Cube"
    },
    {
      "mesh": 0,
      "name": "Cube_0"
    }
  ],
  "scene": 0,
  "scenes": [
    {
      "name": "Sketchfab_Scene",
      "nodes": [
        0
      ]
    }
  ]
}
